# xmcd
#
# Track frame offsets: 
#        150
#        15992
#        33387
#        55345
#        73962
#        92112
#        112337
#        134612
#        152995
#        167415
#        186562
#        206772
#        226515
#        244767
#        256925
#
# Disc length: 3654 seconds
#
# Revision: 0
# Processed by: cddbd v1.5.2PL0 Copyright (c) Steve Scherf et al.
# Submitted via: ExactAudioCopyFreeDBPlugin 1.0
#
DISCID=d50e440f
DTITLE=Lam Nhat Tien - Cat Bien Chieu Nay
DYEAR=1989
DGENRE=Pop
TTITLE0=Doi gian
TTITLE1=Nhung Loi doi gian
TTITLE2=Tam hon co don
TTITLE3=De con mai tuyet voi
TTITLE4=Yeu em am tham
TTITLE5=Cat bien chieu nay
TTITLE6=Em da quen dong song
TTITLE7=Noi ay binh yen
TTITLE8=Con mua ha
TTITLE9=Dung nhin doi xa voi
TTITLE10=Tim em tren pho la
TTITLE11=Va hom nay
TTITLE12=Mot lan nua thoi
TTITLE13=Quen ca loi ve
TTITLE14=lanf du
EXTD=
EXTT0=
EXTT1=
EXTT2=
EXTT3=
EXTT4=
EXTT5=
EXTT6=
EXTT7=
EXTT8=
EXTT9=
EXTT10=
EXTT11=
EXTT12=
EXTT13=
EXTT14=
PLAYORDER=
